# xmcd CD database file
# Copyright (C) 1993-1998 Ti Kan
# 
# Track frame offsets:
#     150
#     19747
#     40982
#     62347
#     79915
#     96757
# 
# Disc length: 1553 seconds
# 
# Revision: 1
# Processed by: cddbd v1.4b41PL1 Copyright (c) Steve Scherf et al.
# Submitted via: DiscPlay 4.0.4
# 
DISCID=40060f06
DTITLE=Vivienne McKone - GET TO KNOW YOU
DYEAR=1900
DGENRE=
TTITLE0=get to know you
TTITLE1=beware
TTITLE2=sing
TTITLE3=move on
TTITLE4=don't push me to my limit
TTITLE5=self control
EXTD=
EXTT0=
EXTT1=
EXTT2=
EXTT3=
EXTT4=
EXTT5=
PLAYORDER=
